<svg width="26" height="26" viewBox="0 0 26 26" fill="none" xmlns="http://www.w3.org/2000/svg">
<path d="M8.45033 2.16666H17.5503C21.017 2.16666 23.8337 4.98332 23.8337 8.44999V17.55C23.8337 19.2164 23.1717 20.8146 21.9933 21.993C20.815 23.1713 19.2168 23.8333 17.5503 23.8333H8.45033C4.98366 23.8333 2.16699 21.0167 2.16699 17.55V8.44999C2.16699 6.78355 2.82898 5.18536 4.00734 4.007C5.18569 2.82865 6.78388 2.16666 8.45033 2.16666ZM8.23366 4.33332C7.19931 4.33332 6.20733 4.74421 5.47594 5.47561C4.74455 6.207 4.33366 7.19898 4.33366 8.23332V17.7667C4.33366 19.9225 6.07783 21.6667 8.23366 21.6667H17.767C18.8013 21.6667 19.7933 21.2558 20.5247 20.5244C21.2561 19.793 21.667 18.801 21.667 17.7667V8.23332C21.667 6.07749 19.9228 4.33332 17.767 4.33332H8.23366ZM18.6878 5.95832C19.047 5.95832 19.3914 6.10099 19.6454 6.35495C19.8993 6.6089 20.042 6.95334 20.042 7.31249C20.042 7.67164 19.8993 8.01607 19.6454 8.27003C19.3914 8.52399 19.047 8.66666 18.6878 8.66666C18.3287 8.66666 17.9842 8.52399 17.7303 8.27003C17.4763 8.01607 17.3337 7.67164 17.3337 7.31249C17.3337 6.95334 17.4763 6.6089 17.7303 6.35495C17.9842 6.10099 18.3287 5.95832 18.6878 5.95832ZM13.0003 7.58332C14.4369 7.58332 15.8147 8.15401 16.8305 9.16983C17.8463 10.1856 18.417 11.5634 18.417 13C18.417 14.4366 17.8463 15.8143 16.8305 16.8302C15.8147 17.846 14.4369 18.4167 13.0003 18.4167C11.5637 18.4167 10.186 17.846 9.17016 16.8302C8.15434 15.8143 7.58366 14.4366 7.58366 13C7.58366 11.5634 8.15434 10.1856 9.17016 9.16983C10.186 8.15401 11.5637 7.58332 13.0003 7.58332ZM13.0003 9.74999C12.1384 9.74999 11.3117 10.0924 10.7022 10.7019C10.0927 11.3114 9.75033 12.138 9.75033 13C9.75033 13.8619 10.0927 14.6886 10.7022 15.2981C11.3117 15.9076 12.1384 16.25 13.0003 16.25C13.8623 16.25 14.6889 15.9076 15.2984 15.2981C15.9079 14.6886 16.2503 13.8619 16.2503 13C16.2503 12.138 15.9079 11.3114 15.2984 10.7019C14.6889 10.0924 13.8623 9.74999 13.0003 9.74999Z" fill="#1B1B1B"/>
</svg>
