<?xml version="1.0" encoding="UTF-8"?> <svg xmlns="http://www.w3.org/2000/svg" width="295" height="295" xml:space="preserve" version="1.1"> <g id="Layer_1"> <title>Layer 1</title> <g id="svg_1"> <circle id="svg_1" fill="#0443B5" r="147.5" cy="147.49999" cx="147.50001" class="st0"></circle> </g> <g id="svg_3"> <g id="svg_4"> <path id="svg_3" fill="#F9FCFC" d="m62.20001,162.09999c0,0.1 0,0.1 0,0.2c-0.8,1.6 -1.5,3.2 -1.9,4.9c0,0 0,0 0,0c-0.2,0.2 -0.3,0.5 -0.4,0.8c-0.1,0.2 -0.1,0.5 -0.2,0.7c-0.7,1.6 -1.2,3.2 -1.4,4.9c-0.2,1.6 0.2,1.9 1.8,1.3c1.4,-0.3 2.6,-1 3.8,-1.7c0.5,-0.2 1,-0.4 1.4,-0.8c0,0 0,0 0,0c0.4,-0.1 0.7,-0.3 1,-0.6c0,0 0,0 0,0c1.5,-0.8 2.9,-1.8 4.1,-3.1c0,0 0,0 0,0c0.7,-0.6 1.4,-1.2 1.2,-2.2c-0.2,-1 -0.5,-1.9 -1,-2.7l0,0c-0.2,-0.6 -0.4,-1.2 -0.6,-1.7c-0.7,-2 -0.4,-4 -0.2,-6c0,0 0,0 0,0c0.5,-1.6 1,-3.1 1.6,-4.7c0,0 0,0 0,0c0.3,-0.6 0.6,-1.2 0.9,-1.8c0.5,-0.7 1.1,-1.4 1.6,-2.1c0.1,-0.1 0.1,-0.1 0.2,-0.2c0,0 0,0 0,0c0.7,-0.6 1.4,-1.2 2.2,-1.7c0,0 0,0 0,0c0.5,-0.3 1,-0.5 1.5,-0.8c0,0 0,0 0,0c0.7,-0.2 1.4,-0.3 2.2,-0.5c3.3,-0.6 5.7,1.2 6,4.6c0.2,2 -0.4,3.8 -1,5.6l0,0c-0.5,1 -1,2.1 -1.6,3.1l0,0c-0.2,0.1 -0.4,0.3 -0.4,0.6l0,0c-0.8,1.2 -1.6,2.3 -2.4,3.5c-0.6,0.9 -1.2,1.8 -1.8,2.6c-0.4,0.6 -0.2,0.9 0.4,1c1.6,0.5 3.1,0.2 4.6,-0.3c1.8,-0.5 3,-1.8 4.5,-2.8c2.3,-1.6 3.8,-3.8 5.5,-5.9c2.2,-2.6 4.7,-4.8 7.8,-6.2c0.7,-0.3 1.5,-0.7 2.2,-0.1c0.6,0.6 0.5,1.4 0.3,2.2c-0.1,0.3 -0.2,0.7 -0.3,1c-0.1,0.1 -0.1,0.3 -0.2,0.4c0,0 0,0 0,0c-0.9,1.4 -2.1,2.5 -3.2,3.7c0,0 0,0 0,0c-0.9,0.5 -1.6,1.2 -2.4,1.9c0,0 -0.1,0 -0.1,0c-1.4,0.8 -2.6,1.9 -3.5,3.2c0,0 0,0 0,0c-1.1,1.3 -2,2.7 -2.4,4.4c0,0 0,0 0,0c-0.6,1.3 -0.7,2.7 -0.7,4.2c0,1.5 0.4,2.9 1.9,3.6c0.3,0.2 0.6,-0.1 0.8,0.2c0.4,0.3 0.8,0.2 1.2,0.1c2.4,-0.3 4.4,-1.4 6.2,-3c0,0 0,0 0,0c0.8,-0.5 1.5,-1.2 2.1,-2c0,0 0,0 0,0c0.6,-0.5 1.2,-1.1 1.6,-1.8c0,0 0,0 0,0c0.3,-0.2 0.5,-0.5 0.6,-0.8c0,0 0,0 0,0c1.3,-1.5 2.2,-3.2 3,-4.9c0,-0.1 0,-0.2 0.1,-0.2c1.1,-2.1 1.9,-4.3 1.9,-6.7c0,-1.5 -0.5,-2.3 -1.9,-2.9c-1.9,-0.7 -2.3,-1.7 -1.8,-3.6l0,0c0.1,-0.1 0.2,-0.2 0.2,-0.4c0,0 0,0 0,0c0.8,-0.7 1.7,-0.9 2.7,-0.8c1.1,0.1 2,0.6 2.9,1.2c0.1,0.1 0.2,0.2 0.3,0.3c0.2,0.4 0.5,0.8 0.7,1.1c0,0 0,0 0,0c0.4,1.1 0.7,2.1 0.8,3.3c0.1,2.2 -0.3,4.3 -0.9,6.5c-0.1,0.1 -0.1,0.2 -0.2,0.3c-0.2,0.3 -0.3,0.6 0,0.8c0.3,0.2 0.4,-0.2 0.6,-0.4c1.8,-1.7 3.7,-3.5 5.5,-5.3c0.6,-0.5 1.1,-0.9 1.6,-1.5c0,0 0,0 0,0c0.6,-0.4 1.1,-0.9 1.5,-1.4c0,0 0,0 0,0c0.2,0 0.2,-0.1 0.3,-0.3c0,0 0,0 0,0c0.3,-0.2 0.6,-0.4 0.8,-0.7c0,0 0,0 0,0c0.2,-0.1 0.3,-0.2 0.4,-0.4c0,0 0,0 0,0c0.4,-0.3 0.9,-0.6 1.2,-1c0,0 0,0 0,0c0.6,-0.4 1.1,-0.8 1.7,-1.1c1.6,-0.9 3.1,-1.8 5.1,-1.2c0,0 0,0 0,0c0.7,0.6 1.2,1.3 1.2,2.2c0.1,1.1 -0.1,2.1 -0.5,3c-0.6,1.5 -1.7,2.7 -2.3,4.1c0,0 0,0.1 0,0.1c-0.6,0.7 -1,1.6 -1.5,2.4c0,0 0,0 0,0c-0.5,0.8 -1.1,1.5 -1.3,2.4c0,0 -0.1,0 -0.1,0l0,0c0.7,-0.1 1,-0.8 1.6,-1.1c0.4,0 0.6,-0.2 0.8,-0.4c2.1,-1.7 4,-3.4 6,-5.2c2.4,-1.9 4.9,-3.8 7.8,-5.1l0,0c0.8,-0.2 1.5,-0.5 2.3,-0.7c1.8,-0.4 3.7,-0.5 5.1,1.1c0.6,0.7 0.9,1.5 1.1,2.3c0.2,2.9 -0.9,5.4 -2.2,7.8c-0.2,0.3 -0.4,0.7 -0.5,1c-0.7,1 -1.3,1.9 -1.8,3c0,0 0,0 0,0c-0.5,0.6 -0.9,1.3 -1.3,2.1c0,0.1 0,0.1 0,0.2c0.1,0 0.1,-0.1 0.2,-0.1c0.6,-0.3 1,-0.7 1.4,-1.2c2.8,-2.3 5.5,-4.8 8.1,-7.3c0.7,-0.4 1.3,-1 1.8,-1.6c0,0 0,0 0,0c1,-0.7 1.8,-1.5 2.7,-2.4c0,0 0,0 0,0c0.3,-0.2 0.6,-0.4 0.8,-0.7c0,0 0,0 0,0c0.4,-0.2 0.7,-0.5 1,-0.8c0,0 0,0 0,0c0.5,-0.3 1,-0.7 1.4,-1.2c0,0 0,0 0,0c0.6,-0.3 1.1,-0.7 1.6,-1.2c0,0 0,0 0,0c0.4,-0.2 0.8,-0.4 1.2,-0.8c0,0 0,0 0,0c0.3,-0.2 0.6,-0.3 0.9,-0.5c2,-1 3.9,-2.1 6.3,-1.4c0,0 0,0 0,0c0.1,0.1 0.3,0.1 0.4,0.2c0,0 0,0 0,0c0.3,0.3 0.7,0.6 1,0.9c1.2,1.8 0.8,3.7 0.2,5.6c-0.1,0.4 -0.2,0.7 -0.4,1.1c-0.3,0.5 -0.5,1 -0.8,1.6c0,0 0,0 0,0c-0.3,0.4 -0.6,0.9 -0.8,1.3l0,0c-0.3,0.3 -0.5,0.6 -0.6,1c0,0 0,0 0,0c-0.4,0.4 -0.7,0.9 -0.9,1.4l0,0c-0.4,0.5 -0.8,0.9 -1,1.5c0,0 0,0 0,0c-0.3,0.2 -0.5,0.5 -0.6,0.8l0,0c-0.4,0.4 -0.8,0.8 -1,1.4c0,0 0,0 0,0c-0.2,0.1 -0.3,0.2 -0.4,0.4c0,0 0,0 0,0c0,0 -0.1,0.1 -0.1,0.1c-0.1,0 -0.1,0.1 -0.1,0.2c-1.6,2 -3.2,4 -4.6,6.1c-0.5,0.7 -0.7,1.5 -0.8,2.3c-0.1,0.7 0.2,0.9 0.8,0.7c0.8,-0.3 1.6,-0.7 2.3,-1.2c0,0 0,0 0,0c1.8,-1 3.6,-2.2 5.3,-3.5c0,0 0,0 0,0c0.3,0 0.5,-0.2 0.6,-0.4c0.1,0 0.1,-0.1 0.2,-0.1c0.2,0 0.3,-0.1 0.4,-0.3l0,0c0.4,-0.1 0.7,-0.4 0.9,-0.7c0,0 0,0 0,0c1.6,-1 3,-2.1 4.4,-3.4l0,0c1.3,-1 2.8,-1.8 3.1,-3.7c0,0 0,0 0,0c1,-1.9 2.1,-3.8 3.1,-5.7c0,0 0,0 0,0c0.7,-0.8 1.3,-1.7 2,-2.5c1.4,-1.5 2.8,-2.9 4.5,-4.1c1.7,-1.3 3.6,-2.3 5.6,-2.9c0.4,0 0.7,-0.1 1.1,-0.1c2.8,-0.4 5.6,0.5 6.3,3.8c0,0.7 0,1.4 0,2.2c-0.3,0.8 -0.5,1.6 -1,2.4c-0.7,1.4 -1.9,2.4 -3,3.4c-1,0.6 -1.9,1.3 -2.9,1.9c-0.1,0.1 -0.2,0.1 -0.2,0.2c0,0 0,0 0,0c-2.6,1.3 -5.2,2.6 -7.8,4.1c0,0 0,0 0,0c-0.5,0.1 -1,0.3 -1.4,0.6l-0.1,0c0,0 -0.1,0 -0.1,0c-3.4,1.3 -3.4,0.9 -3.1,4.5c0.1,2 1.1,3.6 3.1,4.4l0,0c0.5,0.4 1,0.5 1.6,0.6c1,0.3 2.1,0.3 3.1,0c0.9,-0.1 1.8,-0.5 2.6,-0.9c4.2,-2.1 7.8,-5.1 11.2,-8.4c0,0 0,0 0,0c1.3,-1.2 2.6,-2.5 3.9,-3.7c0,0 0,0 0,0c0.5,-0.4 1,-0.8 1.3,-1.3c0,0 0,0 0,0c0.5,-0.4 1.1,-0.9 1.4,-1.5c0,0 0,0 0,0c1.6,-1.6 3.1,-3.3 4.5,-5.1c0,0 0,0 0,0c0.8,-0.9 1.8,-1.8 2.3,-2.9c0,0 0,0 0,0c0.3,0 0.4,-0.3 0.6,-0.5c1.4,-1.7 2.9,-3.3 4.7,-4.6c0,0 0,0 0,0c0.3,-0.1 0.6,-0.2 0.9,-0.3c1.5,-0.4 2.6,0.2 3.1,1.6c0.3,0.9 0.2,1.8 0.1,2.7c-0.5,2.8 -1.7,5.4 -2.9,8c0,0 0,0 0,0c-0.5,0.6 -0.9,1.4 -1.1,2.2c0,0 0,0 0,0c-0.3,0.5 -0.7,1.2 -0.2,1.6c0.3,0.3 0.9,-0.3 1.2,-0.7c0,0 0,0 0,0c1.4,-0.9 2.6,-2 3.7,-3.1c2.3,-2 4.4,-4.1 6.9,-5.8c2.2,-1.5 4.5,-2.6 7.1,-3c2,-0.1 3.9,0.2 5.6,1.5c0,0 0,0 0,0c0.1,0.1 0.3,0.3 0.4,0.4c0,0 0,0 0,0c0.6,0.9 0.9,1.9 0.9,3c0,1.3 -0.3,2.5 -0.6,3.8c0,0.2 0,0.4 0,0.6c0,0 0,0.1 -0.1,0.2c0,0 0,0 0,0c-0.1,0.1 -0.3,0.1 -0.3,0.2c-0.6,1.4 -1.2,2.7 -1.9,4.1c-1.3,2.1 -2.7,4.2 -3.9,6.5c-0.7,1 -1.2,2.2 -1.5,3.4c-0.3,1.5 0.6,2.5 2.1,2.1c2,-0.5 3.7,-1.7 5.4,-3c2.2,-1.5 4.2,-3.3 6.1,-5.1c0.4,-0.3 0.8,-0.6 1,-1c0,0 0,0 0,0c0.9,-0.9 1.9,-1.7 2.8,-2.6c1,-0.3 1.7,0.1 2.1,0.9c0.4,0.8 0.1,1.5 -0.5,2.1c-3,2.8 -6.1,5.7 -9.3,8.3c-1.6,1.3 -3.3,2.5 -5.1,3.5c-0.5,0.2 -1.1,0.4 -1.6,0.6c-2.6,0.9 -5.1,1.4 -7.3,-0.8c0,0 0,0 0,0c-0.1,-0.1 -0.1,-0.1 -0.2,-0.2c0,0 0,0 0,0c-0.6,-1.2 -0.7,-2.5 -0.6,-3.9c0.6,-3.2 2.3,-6.1 3.7,-9c0.3,-0.3 0.5,-0.7 0.6,-1.2l0,0c0.8,-1.2 1.4,-2.6 1.9,-3.9c0,0 0,0 0,0c0.4,-0.5 0.6,-1.1 0.8,-1.8c0,0 0,0 0,0c0.6,-1 0.9,-2.2 1.1,-3.4c0.2,-1.2 -0.4,-1.8 -1.6,-1.6c-1.4,0.3 -2.6,1 -3.8,1.8l0,0c-0.5,0.2 -0.9,0.4 -1.2,0.8c0,0 0,0 0,0c-0.3,0.1 -0.5,0.2 -0.6,0.4c0,0 0,0 0,0c-1.7,1 -3.3,2.2 -4.9,3.5c0,0 0,0 0,0c-0.3,0.1 -0.5,0.2 -0.7,0.5c0,0 0,0 0,0c-1.1,0.8 -2.2,1.6 -3.1,2.5c0,0 0,0 0,0c-0.6,0.4 -1.1,0.8 -1.5,1.4c0,0 0,0 0,0c-0.6,0.4 -1.2,0.9 -1.6,1.5c0,0 0,0 0,0c-1.2,1 -2.3,2 -3.3,3.1l0,0c-0.6,0.5 -1.1,1 -1.6,1.6l0,0c-0.1,0.1 -0.3,0.3 -0.4,0.4l0,0c-0.2,0.1 -0.3,0.2 -0.4,0.4c-0.1,0.1 -0.1,0.1 -0.2,0.2c-1.2,1.1 -2.3,2.2 -3.3,3.5c0,0 0,0 0,0c-0.8,0.7 -1.4,1.5 -2.1,2.3c-0.8,0.8 -1.6,1.7 -2.8,2.1c-0.6,0.2 -1.2,0.3 -1.7,-0.2c-0.5,-0.5 -0.5,-1.1 -0.3,-1.7c0.1,-0.3 0.2,-0.5 0.3,-0.8c0,0 0,0 0,0c0.6,-0.8 1.2,-1.6 1.7,-2.4c0,0 0,0 0,0c0.1,-0.1 0.1,-0.1 0.2,-0.2l0,0c1.3,-1.4 2.3,-2.9 3.3,-4.5l0,0c0.2,-0.1 0.3,-0.3 0.4,-0.6l0,0c0.2,-0.1 0.3,-0.3 0.4,-0.6c0,0 0,0 0,0c1.2,-1.7 2.3,-3.4 3.1,-5.3c0,0 0,0 0,0c0.1,-0.1 0.2,-0.2 0.2,-0.4c0,0 0,0 0,0c0.7,-1.2 1.3,-2.4 1.8,-3.7c0,0 0,0 0,0c0.9,-1.7 1.4,-3.5 1.9,-5.4c-0.6,0.2 -1.1,0.4 -1.5,0.8c0,0 0,0 0,0c-0.4,0.2 -0.7,0.5 -0.9,0.8c0,0 0,0 0,0c-0.5,0.5 -1.1,0.9 -1.3,1.6c-0.1,0.2 -0.3,0.4 -0.4,0.6c-1.5,1.3 -2.7,2.8 -3.9,4.3c0,0 0,0 0,0c-0.7,0.5 -1.2,1.1 -1.7,1.8c0,0 0,0 0,0c-0.5,0.4 -1,0.8 -1.4,1.4c0,0 0,0 0,0c-0.3,0.2 -0.6,0.4 -0.8,0.8c0,0 0,0 0,0c-2.4,2 -4.4,4.3 -6.6,6.4c0,0 0,0 0,0c-0.7,0.5 -1.3,1 -1.9,1.6l0,0c-0.9,0.7 -1.8,1.4 -2.7,2.1c0,0 0,0 0,0c-0.1,0 -0.3,0.1 -0.3,0.2c0,0 0,0 0,0c-0.3,0.1 -0.6,0.3 -0.8,0.5c0,0 0,0 0,0c-0.3,0.1 -0.5,0.2 -0.6,0.4c-0.1,0.1 -0.3,0.1 -0.4,0.2c-0.8,0.4 -1.7,0.8 -2.5,1.2l0,0c-0.5,0.1 -1,0.3 -1.5,0.4c-2.5,0.8 -5,1.1 -7.5,0.6c-2.6,-0.5 -4.2,-2.2 -5.5,-4.3c0,0 0,0 0,0c0,-0.2 0,-0.3 -0.2,-0.4c0,0 0,0 0,0c-0.6,-1.5 -1,-3 -1.1,-4.7c-2.2,2 -4.4,3.5 -6.5,5.2c0,0 0,0 0,0c-2.5,1.5 -5,3 -7.6,4.3c-1.3,0.4 -2.6,0.9 -4,0.8c-2,-0.1 -3,-1.2 -3,-3.1c0,-0.4 0,-0.8 0,-1.2c0.2,-0.7 0.4,-1.3 0.6,-2c0,0 0,0 0,0c1.2,-2.6 2.9,-5 4.5,-7.4c1.1,-1.4 2.2,-2.9 3.1,-4.4c0.1,-0.1 0.1,-0.2 0.2,-0.3l0,0c1.1,-1.5 2.1,-3 2.8,-4.7c0.5,-0.7 0.6,-1.5 0.8,-2.2c0.2,-0.6 0.1,-1 -0.7,-0.7c-0.7,0.1 -1.3,0.4 -1.8,0.9c0,0 0,0 0,0c-1.8,1.1 -3.5,2.3 -5,3.8c0,0 0,0 0,0c-0.2,0 -0.4,0.2 -0.5,0.4c-0.2,0.2 -0.4,0.4 -0.7,0.6c-1.4,1 -2.7,2.3 -3.9,3.5c0,0 0,0 0,0c-0.1,0.1 -0.2,0.1 -0.2,0.2c0,0 0,0 0,0c-0.5,0.4 -1.1,0.8 -1.5,1.4l0,0c-2.5,2.1 -4.9,4.3 -7.4,6.4c0,0 0,0 0,0c-0.2,0.1 -0.4,0.1 -0.4,0.4c0,0 0,0 0,0c-1,0.7 -1.9,1.5 -2.7,2.3c0,0 0,0 0,0c-0.2,0.1 -0.4,0.2 -0.6,0.4c0,0 0,0 0,0c-0.1,0.1 -0.3,0.2 -0.4,0.4c-0.2,0.2 -0.5,0.4 -0.7,0.6c-1.1,0.9 -2.2,1.8 -3.3,2.7c-0.9,0.4 -1.9,1 -3,0.8c-1,-0.7 -1,-1.6 -0.7,-2.7c0.3,-1 0.8,-1.9 1.4,-2.7c0.7,-1.1 1.4,-2.2 2.2,-3.3c0,0 0,0 0,0c0.2,-0.1 0.3,-0.3 0.4,-0.6c0,0 0,0 0,0c0.1,0 0.2,-0.1 0.2,-0.2c0.6,-0.9 1.2,-1.8 1.8,-2.8c0.5,-0.4 0.8,-0.9 1,-1.5c0,0 0,0 0,0c0.7,-0.9 1.3,-1.8 1.7,-2.9c0.6,-0.7 1,-1.5 1.3,-2.4c0.6,-1.1 0.9,-2.3 1.1,-3.5c0.2,-1.3 -0.5,-1.9 -1.8,-1.5c-1.5,0.5 -2.8,1.2 -4,2.2l0,0c-1.1,0.7 -2.2,1.4 -3.2,2.3l0,0.1c0,0 0,-0.1 0,-0.1c-0.2,0 -0.3,0.1 -0.4,0.3c0,0 0,0 0,0c-0.3,0.1 -0.6,0.3 -0.8,0.6c-1.2,0.8 -2.3,1.7 -3.3,2.7c-0.7,0.5 -1.3,1 -1.8,1.7c0,0 0,0 0,0c-0.2,0 -0.3,0.1 -0.3,0.3c0,0 0,0 0,0c-0.4,0.2 -0.7,0.5 -0.9,0.8l0,0c-0.4,0.2 -0.7,0.5 -0.9,0.8c0,0 0,0 0,0c-0.8,0.6 -1.6,1.3 -2.2,2c0,0 0,0 0,0c-1.6,1.3 -3,2.7 -4.5,4.1c0,0 0,0 0,0c-0.1,0.1 -0.1,0.1 -0.2,0.2c0,0 0,0 0,0c-0.1,0.1 -0.2,0.2 -0.3,0.3c0,0 0,0 0,0c-1.7,1.4 -3.3,2.9 -4.9,4.4c0,0 0,0 0,0c-0.1,0.1 -0.1,0.1 -0.2,0.2c0,0 0,0 0,0c-0.7,0.4 -1.3,1 -2,1.3c-0.7,0.3 -1.4,0.4 -2.1,-0.2c0,0 0,0 0,0c-0.5,-1.1 0,-2 0.6,-2.9c1,-1.6 2.4,-2.9 3.3,-4.5c0,0 0,0 0,0c0.4,-0.4 0.8,-0.8 1,-1.4c0,0 0,0 0,0c1.3,-1.6 2.5,-3.3 3.5,-5.1l0,0c0.3,-0.3 0.5,-0.6 0.6,-1c0,0 0,0 0,0c0.8,-1 1.4,-2.1 2,-3.3c0,-0.1 0.1,-0.2 0.1,-0.3c0.9,-1.4 1.6,-3 2.3,-4.5c0.1,-0.2 0.3,-0.5 0,-0.7c-0.2,-0.2 -0.5,-0.1 -0.7,0.1c-0.1,0.1 -0.3,0.2 -0.4,0.3c-0.1,0 -0.1,0.1 -0.2,0.1c-2.3,1.4 -4.1,3.3 -6,5.1c-1.8,1.8 -3.6,3.5 -5.4,5.3c-0.9,0.9 -1.7,0.9 -2.6,0.1c-0.4,-0.3 -0.5,-0.2 -0.6,0.1c-0.1,0.2 -0.2,0.5 -0.3,0.7l0,0c-0.1,0.2 -0.2,0.4 -0.3,0.6c0,0 0,0.1 0,0.1c-1.4,2.1 -2.9,4.2 -4.6,6.1c0,0 0,0 0,0c-0.1,0.1 -0.1,0.1 -0.2,0.2c0,0 -0.1,0 -0.1,0c-1.5,1.3 -3,2.5 -4.6,3.6c0,0 0,0 0,0c-0.7,0.4 -1.4,0.8 -2.1,1.2c0,0 0,0 0,0c-0.4,0.1 -0.8,0.3 -1.2,0.4c-3.3,1 -6.7,2.1 -9.5,-1.1c0,0 0,-0.1 0,-0.1c-2.1,-3.1 -1.8,-6.5 -1.1,-10.1c-1.9,1.2 -3.9,1.4 -5.9,1.7c-1.8,0 -3.6,0 -5.3,0c-0.8,0 -1.5,0.4 -2.1,0.9c-2.7,2 -5.3,4 -7.9,5.9c-1.4,0.8 -2.7,1.5 -4.1,2.3c0,0 0,0 0,0c-0.2,0 -0.3,0 -0.4,0.2c0,0 0,0 0,0c-0.7,0.3 -1.3,0.5 -2,0.8c-0.5,0.1 -1,0.3 -1.5,0.4c-0.4,0 -0.8,0.1 -1.2,0.1c-2.5,0.3 -3.6,-0.6 -3.6,-3.1c0,-1.7 0.4,-3.3 0.9,-4.9c0.7,-2.2 1.5,-4.3 2.3,-6.5c0,0 0,0 0,0c0.4,-0.6 0.5,-1.4 0.7,-2.1c0.1,-0.2 0.2,-0.5 -0.1,-0.7c-0.3,-0.1 -0.4,0.2 -0.6,0.4c0,0 0,0 0,0c-3.4,3.8 -6.5,7.9 -9.9,11.7l0,0c-0.8,0.8 -1.7,1.6 -2.5,2.3c0,0 0,0 0,0c-0.5,0.4 -1,0.8 -1.6,1.1c-1.6,1.1 -3.2,2 -5.2,1.6c0,0 0,0 0,0c-0.9,-0.6 -1.3,-1.4 -1.4,-2.5c-0.2,-1.8 0.3,-3.5 0.6,-5.3c1.2,-3.8 3,-7.4 4.5,-11.2c1,-2 2,-4 2.5,-6.1l0,0c0.1,-0.1 0.2,-0.2 0.2,-0.3c0,-0.3 0.3,-0.8 -0.1,-1c-0.4,-0.3 -0.7,0.1 -1,0.3c-0.5,0.4 -1,0.8 -1.5,1.4c0,0 0,0 0,0c-0.1,0.1 -0.1,0.1 -0.2,0.2c0,0 0,0 0,0c-0.5,0.4 -1,0.8 -1.4,1.4l0,0c-1.8,1.7 -3.4,3.7 -5.1,5.6c0,0 0,0 0,0c-1.1,1.1 -2.2,2.2 -3.3,3.3l0,0c-0.9,0.6 -1.7,1.3 -2.9,0.6c0,0 0,0 0,0c-0.7,-1.1 -0.7,-1.6 0.1,-2.5c0.2,-0.2 0.4,-0.4 0.5,-0.5c0,0 0,0 0,0c1.4,-0.9 2.5,-2.1 3.5,-3.4c1.9,-2 3.7,-4.2 5.4,-6.4c0.3,-0.3 0.6,-0.6 0.8,-1c0,0 0,0 0,0c0.4,-0.3 0.7,-0.7 1,-1.2c0,0 0,0 0,0c0.5,-0.3 0.9,-0.9 1.2,-1.4c0,0 0,0 0,0c1,-0.9 1.9,-1.7 2.9,-2.6l0,0c0.1,0 0.3,-0.1 0.3,-0.2c0,0 0.1,0 0.1,0c0.5,-0.2 1,-0.5 1.5,-0.7c2.2,-0.9 4,0.3 4.1,2.7c0,1 -0.2,2.1 -0.5,3.1c-0.7,2.6 -1.8,5 -2.8,7.4c0,0 0,0 0,0c-0.2,0.1 -0.2,0.2 -0.2,0.4c-1.1,2.2 -2.2,4.3 -3.1,6.6c-0.3,0.4 -0.5,0.9 -0.6,1.4c0,0 0,0 0,0c-0.2,0.1 -0.2,0.2 -0.2,0.4l0,0c-0.9,1.6 -1.4,3.4 -1.9,5.1c-0.2,0.8 0.2,1.2 1,0.9c1,-0.3 1.8,-1 2.5,-1.8c2.3,-2 4.3,-4.4 6.2,-6.9c0,0 0.1,-0.1 0.1,-0.1c0.1,0 0.1,-0.1 0.1,-0.2c1.1,-1.3 2.2,-2.7 3.1,-4.1c0,0 0,0 0,0c1.2,-1.5 2.3,-3 3.4,-4.6c0,0 0,0 0,0c0.7,-0.6 1.2,-1.4 1.7,-2.2l0,0c0.4,-0.3 0.7,-0.8 0.9,-1.2c0,0 0,0 0,0c0.7,-0.8 1.3,-1.6 2,-2.4c1.1,-1.2 2,-2.5 3.5,-3.3c0.9,-0.5 1.7,-0.5 2.5,0.3l0,0c0.3,1.1 0.2,2.1 -0.1,3.1c-0.6,2.1 -1.8,3.8 -2.6,5.8c0,0 0,0 0,0c-0.3,0.5 -0.5,1 -0.8,1.6c0,0 0,0 0,0c-0.8,1.4 -1.4,2.8 -2,4.3c0,0 0,0 0,0c-0.4,0.4 -0.4,0.5 -0.4,0.6zm14.9,-1.6l0,0c0.2,-0.1 0.4,-0.3 0.4,-0.6l0,0c0.7,-0.8 1.1,-1.6 1.6,-2.5l0,0c0.2,-0.1 0.2,-0.2 0.2,-0.4l0,0c1,-1.5 1.6,-3.2 2.1,-4.9c0.2,-0.9 0.5,-1.8 0,-2.7l0,0c0,-0.4 -0.1,-0.7 -0.5,-0.8l-0.1,0l0,0c-1,-0.8 -2.1,-0.7 -3.1,0.2c-1.2,1.1 -1.9,2.5 -2.4,4c-0.8,1.8 -1.1,3.8 -1.1,5.7c0,1.1 0.1,2.2 0.6,3.2c0.5,1 0.6,1 1.4,0.2c0.3,-0.2 0.6,-0.6 0.8,-0.9l0,0c0,-0.2 0.1,-0.3 0.1,-0.5zm115.7,-1.7c0.4,-0.1 0.7,-0.3 0.9,-0.6l0,0c1.7,-1.1 3.3,-2.5 4.5,-4.2c0.6,-0.9 1.4,-1.9 0.8,-3.2l0,0c-0.1,-0.8 -0.7,-1 -1.4,-0.9c-0.8,0.1 -1.6,0.3 -2.2,0.9c-0.6,0.2 -1.1,0.6 -1.5,1c-0.3,0.1 -0.5,0.3 -0.6,0.5l0,0c-1,0.8 -2,1.7 -2.7,2.7l0,0c-1.4,1.4 -2.6,3 -3.4,4.8c-0.1,0.3 -0.3,0.7 0,1c0.3,0.3 0.7,0.3 1.1,0.1l0,0c1.7,-0.2 3.1,-1.2 4.5,-2.1l0,0z" class="st1"></path> </g> <g id="svg_6"> <path id="svg_5" fill="#F9FCFC" d="m69.30001,101.89999c0.1,0 0.1,0 0.1,-0.1c0.4,0 0.8,0 1.3,0.1c5.4,0.1 10.7,-0.3 16.1,0.3c0,0 0,0 0,0c0.5,0.2 0.9,0.3 1.4,0.5c0.1,0 0.1,0 0.2,0c0.3,0.1 0.6,0.3 0.9,0.4c5.3,3 6.8,9 5.2,14c0,0.2 -0.1,0.3 -0.1,0.5c-0.6,1.2 -1.2,2.3 -2,3.3c0,0 0,0 0,0c-0.2,0.2 -0.4,0.3 -0.6,0.6c0,0 0,0 0,0c-0.3,0.3 -0.7,0.6 -1,0.8c-0.4,0.3 -0.4,0.5 -0.2,0.9c1.6,2.5 3.1,5 4.7,7.5c0.4,0.6 0.7,1.2 1.1,1.8c0.3,0.5 0.5,1.1 -0.1,1.6c-2.8,0 -5.7,0 -8.5,0c-0.5,0 -0.7,-0.4 -0.9,-0.8c-1.6,-2.7 -3.2,-5.4 -4.7,-8.1c-0.3,-0.5 -0.5,-0.7 -1.1,-0.6c-0.9,0 -1.9,0 -2.8,0c-0.6,0 -0.8,0.2 -0.8,0.8c0,2.6 0,5.2 0,7.9c0,0.3 0.2,0.7 -0.3,0.9c-2.6,0 -5.3,0 -7.9,0c0,-0.1 0,-0.1 0,-0.2c0,-0.4 0,-0.8 0,-1.2c0,-10.2 0,-20.6 0,-30.9zm17.2,13.3l0,0c0.8,-1.8 0.5,-3.8 -0.8,-4.9l0,0c-0.5,-0.7 -1.2,-0.9 -2,-1c-1.8,0 -3.7,0 -5.5,0c-0.3,0 -0.6,0 -0.6,0.4c0,2.4 0,4.7 0,7.1c0,0.5 0.3,0.5 0.7,0.5c1.6,0 3.2,0 4.7,0c0.4,0 0.9,0.1 1.3,-0.2c0.1,0 0.2,-0.1 0.4,-0.1c0.9,-0.3 1.5,-0.9 1.8,-1.8z" class="st1"></path> </g> <g id="svg_8"> <path id="svg_7" fill="#F9FCFC" d="m62.90001,113.79999c-2.5,0 -4.9,0 -7.4,0c-0.4,0 -0.7,0 -0.9,-0.4c-1.4,-3.5 -4.2,-4.5 -7.7,-4.2c-3.2,0.3 -5.4,2 -6.4,5c-1.3,3.7 -0.9,7.3 1.7,10.4c0.1,0.1 0.2,0.2 0.3,0.2c2.4,2.7 7.4,3 10,0.8c0,0 0,0 0,0c1.2,-0.7 1.9,-1.9 2.3,-3.1c0.2,-0.4 0.3,-0.6 0.8,-0.6c2.5,0 5.1,0 7.6,0.1c0,0 0,0 0,0c-0.3,2.7 -1.3,5.2 -2.9,7.4c0,0 0,0 0,0c-1.5,1.8 -3.4,3.1 -5.5,4.1c0,0 0,0 0,0c-0.8,0.3 -1.6,0.5 -2.3,0.8l0,0c-1.7,0.3 -3.4,0.6 -5.1,0.5c-1.2,-0.1 -2.4,-0.2 -3.6,-0.3c-0.6,-0.1 -1.2,-0.3 -1.8,-0.4c-0.1,-0.2 -0.2,-0.3 -0.4,-0.4c-1.2,-0.4 -2.3,-1.1 -3.5,-1.7c-4,-2.8 -6.2,-6.7 -6.7,-11.5c-1,-9.7 4.5,-17 13.7,-18.5c2.6,-0.4 5.2,-0.2 7.8,0.4c2.2,0.8 4.3,1.9 6.1,3.4c0,0 0,0 0,0c0.4,0.5 0.7,1 1.2,1.3c0.1,0.1 0.1,0.1 0.2,0.2c0.1,0.2 0.2,0.4 0.3,0.6c1.1,1.6 2,3.6 2.2,5.9z" class="st1"></path> </g> <g id="svg_10"> <path id="svg_9" fill="#F9FCFC" d="m258.70001,101.89999c0,0.1 0,0.1 0,0.2c0,2.3 0,4.7 0,7c-0.2,0.2 -0.4,0.1 -0.6,0.2c-3.6,0 -7.1,0 -10.7,0c-0.5,0 -0.7,0.1 -0.7,0.7c0,1 0,2 0,3c0,0.7 0.2,0.9 0.9,0.9c3.4,0 6.7,0 10.1,0c0,0 0,0 0,0c0,2.3 0,4.7 0.1,7c0,0.1 0,0.2 0,0.4c-3.4,0 -6.7,0 -10.1,0c-0.6,0 -0.9,0.1 -0.9,0.8c0.1,1.3 0.1,2.6 0,3.9c0,0.8 0.2,1 1,1c3.8,0 7.6,0 11.4,0c0,0.1 0,0.1 0,0.2c0,2.1 -0.1,4.2 0,6.3c0,0.7 -0.2,0.9 -0.8,0.9c-6.6,0 -13.2,0 -19.8,0c0,-0.1 0,-0.1 -0.1,-0.2c0,-0.4 0,-0.8 0,-1.2c0,-10 0,-20 0,-30.1c0,-0.6 -0.1,-1 0.8,-1c6.4,0 12.9,0 19.4,0z" class="st1"></path> </g> <g id="svg_12"> <path id="svg_11" fill="#F9FCFC" d="m120.90001,118.49999c0,0.1 0,0.3 0,0.4c0,0.7 0,1.4 0,2.1c-0.5,0.6 -1.2,0.3 -1.8,0.2c-2.9,0 -5.8,0 -8.7,0c-0.6,0 -0.7,0.2 -0.7,0.7c0,1.3 0.1,2.6 0,3.9c-0.1,0.9 0.2,1.1 1.1,1.1c3.8,0 7.6,0 11.4,0c0,2.2 0,4.3 0,6.5c0,0.7 -0.2,0.8 -0.8,0.8c-6.3,0 -12.6,0 -19,0c-0.6,0 -0.8,-0.2 -0.8,-0.8c0,-10.2 0,-20.5 0,-30.7c0,-0.7 0.3,-0.8 0.8,-0.8c6.2,0 12.3,0 18.5,0c0.7,0 0.9,0.2 0.9,0.9c0,1.9 0,3.8 0,5.6c0,0.3 0.1,0.7 -0.4,0.9c-0.8,0 -1.7,0 -2.5,0c-2.8,0 -5.6,0 -8.4,0c-0.4,0 -0.9,-0.1 -0.7,0.6c0,1.3 -0.2,2.6 0.1,3.8c0.4,0 0.8,0 1.2,0.1c3.2,0 6.5,0 9.7,0c0,0 0,0 0,0c0.1,1.6 0.1,3.1 0.1,4.7z" class="st1"></path> </g> <g id="svg_14"> <path id="svg_13" fill="#F9FCFC" d="m148.40001,111.99999c0.9,2.1 1.9,4.2 2.9,6.2c1.5,3.6 3.1,7.1 4.9,10.5c0,0 0,0 0,0c0.5,1.2 1.1,2.4 1.6,3.6c0.3,0.6 0.5,1.2 0,1.8c0,0 0,0 0,0c-2.5,0 -5,0 -7.6,0c-0.8,-0.4 -0.9,-1.3 -1.1,-1.9c-0.5,-1.8 -1.6,-2.3 -3.5,-2.2c-3.1,0.2 -6.3,0.1 -9.4,0c-0.8,0 -1.1,0.2 -1.3,1c-0.4,0.8 -0.8,1.6 -1.2,2.4c-0.2,0.5 -0.5,0.7 -1.1,0.7c-2.1,0 -4.2,0 -6.3,0c-1.1,0 -1.4,-0.3 -1,-1.4c0.3,-0.7 0.6,-1.4 0.8,-2c0,0 0,0 0,0c0.2,-0.1 0.2,-0.2 0.2,-0.4c0,0 0,0 0,0c0.2,-0.1 0.2,-0.2 0.2,-0.4c0,0 0,0 0,0c0.1,-0.1 0.1,-0.3 0.2,-0.4c0,0 0,0 0,0c0.1,-0.1 0.1,-0.3 0.2,-0.4c0.4,-0.7 0.7,-1.5 1,-2.2c0.3,-0.5 0.6,-1 0.8,-1.6c1.3,-2.9 2.7,-5.7 4,-8.6c0.6,-1.3 1.4,-2.5 1.7,-3.9c0,0 0,0 0,0c0.3,-0.1 0.3,-0.4 0.4,-0.6l0,0c0.4,-0.5 0.6,-1.1 0.8,-1.8c0,0 0,0 0,0c0.2,-0.1 0.2,-0.2 0.2,-0.4c0,0 0,0 0,0c0.8,-1.5 1.5,-3.1 2.1,-4.7c0,0 0,0 0,0c0.5,-0.8 0.9,-1.6 1.2,-2.5c0.2,-0.1 0.2,-0.2 0.2,-0.4c0.3,-0.9 1,-1.2 1.9,-1.1c0.2,0 0.3,0 0.5,0c1.3,-0.2 2,0.3 2.5,1.6c1.3,3.2 2.7,6.1 4.2,9.1zm-5.1,6.7c-0.1,-0.4 -0.3,-0.9 -0.5,-1.2c-0.2,-0.6 -0.5,-1.2 -0.7,-1.8c-0.1,-0.2 -0.2,-0.6 -0.5,-0.5c-0.3,0 -0.3,0.3 -0.4,0.6c-1,2.2 -2,4.5 -3,6.7c-0.1,0.3 -0.2,0.6 0.3,0.6c2.2,0 4.4,0 6.8,0c-0.7,-1.6 -1.4,-3 -2,-4.4l0,0z" class="st1"></path> </g> <g id="svg_16"> <path id="svg_15" fill="#F9FCFC" d="m213.60001,128.09999c0,-0.1 -0.1,-0.2 -0.1,-0.3c-0.1,-0.3 -0.2,-0.7 -0.5,-1c0,0 0,0 0,0c-0.5,-1.2 -1,-2.4 -1.5,-3.6c-1.2,-2.6 -2.2,-5.3 -3.5,-7.8l0,0c-0.4,-0.9 -0.6,-2 -1.4,-2.7c0,0 0,0 0,0c0,-0.4 -0.1,-0.8 -0.3,-1.1c-1.1,-2.5 -2.2,-5.1 -3.4,-7.6c-0.2,-0.4 -0.3,-0.8 -0.3,-1.2c0,-0.6 0.1,-0.8 0.7,-0.8c2.2,0 4.4,0 6.6,0c0.5,0 0.7,0.2 0.9,0.7c0.5,1.2 1,2.3 1.5,3.5l0,0c1.9,4.6 3.8,9.3 5.7,13.9c0,0.1 0.1,0.1 0.2,0.1c0.3,-0.4 0.4,-0.8 0.5,-1.2l0,0c0.4,-0.6 0.6,-1.3 0.8,-2l0,0c1.2,-2.6 2.2,-5.3 3.3,-8c0,-0.1 0,-0.1 0.1,-0.2c0.3,-0.4 0.4,-0.9 0.6,-1.4l0,0c0.7,-1.6 1.3,-3.2 2,-4.8c0.2,-0.4 0.4,-0.7 0.9,-0.6c2.5,0 4.9,0 7.4,0c0,0.1 0,0.1 0.1,0.2c0,0.7 -0.2,1.4 -0.5,2c-1.7,3.8 -3.3,7.6 -4.9,11.4c0,0 0,0 0,0c-1.2,2.5 -2.4,5.1 -3.3,7.7c0,0 0,0 0,0c-0.8,1.4 -1.4,2.9 -2,4.5l0,0c-0.8,1.3 -1.3,2.8 -1.9,4.2c-1.2,2.8 -1.2,2.8 -4.2,2.6c-0.4,0 -0.6,-0.1 -0.7,-0.5c-0.6,-1.4 -1.1,-2.8 -1.9,-4.1c0,0 0,0 0,0c-0.3,-0.7 -0.6,-1.3 -0.9,-1.9z" class="st1"></path> </g> <g id="svg_18"> <path id="svg_17" fill="#F9FCFC" d="m180.90001,109.09999c-0.2,0.2 -0.4,0.1 -0.6,0.2c-2.1,0 -4.2,0 -6.2,-0.1c-0.9,0 -1.1,0.2 -1.1,1.1c0,7.6 0,15.2 0,22.8c0,0.9 -0.3,1.1 -1.1,1.1c-2,-0.1 -4,-0.1 -6,0c-0.9,0 -1.1,-0.2 -1.1,-1.1c0,-7.5 0,-15 0,-22.6c0,-0.3 0,-0.6 0,-1c0,-0.3 -0.2,-0.3 -0.4,-0.2c-0.1,0 -0.3,0 -0.4,0c-2.1,0 -4.2,0 -6.3,0c-0.6,0 -0.8,-0.1 -0.8,-0.8c0,-2 0,-4 0,-5.9c0,-0.6 0.3,-0.7 0.8,-0.7c7.7,0 15.5,0 23.2,0c0,0.1 0,0.1 0,0.2c0,2.4 0,4.7 0,7z" class="st1"></path> </g> <g id="svg_20"> <path id="svg_19" fill="#F9FCFC" d="m183.30001,126.99999c0.1,0 0.1,0 0.1,-0.1c1,0 2.1,0 3.1,0c0.1,0 0.3,0 0.4,0c0.5,0.1 0.5,-0.3 0.5,-0.6c0,-5.5 0,-11 0,-16.5c0,-0.5 -0.2,-0.7 -0.7,-0.6c-1,0 -1.9,0 -2.9,0c-0.1,0 -0.1,0 -0.2,0c0,-2.2 0,-4.3 0,-6.5c0,-0.5 0.1,-0.7 0.7,-0.7c4.8,0 9.6,0 14.4,0c0.6,0 0.7,0.2 0.7,0.7c0,2.2 0,4.3 0,6.5c0,0 0,0 0,0c-1,0 -2.1,0 -3.1,0c-0.4,0 -0.6,0.1 -0.6,0.6c0,5.5 0,11.1 0,16.6c0,0.5 0.2,0.6 0.6,0.6c1.1,0 2.2,0 3.3,0c0.2,0.2 0.2,0.5 0.2,0.7c0,2.2 0,4.4 0,6.6l0,0c-0.1,0 -0.2,0 -0.3,0c-0.3,0 -0.6,0 -1,0c-5,0 -10.1,0 -15.1,0c0,-0.1 0,-0.1 -0.1,-0.2c-0.1,-2.4 -0.1,-4.8 0,-7.1z" class="st1"></path> </g> <g id="svg_22"> <path id="svg_21" fill="#F9FCFC" d="m111.90001,199.99999c0.7,1.6 1,3.1 -0.2,4.6c-0.4,0.5 0.2,0.6 0.4,0.8c0.6,0.7 1,1.4 1,2.4c0.1,3.1 -1.7,5 -4.8,5c-2.2,0 -4.3,0 -6.5,0c-0.2,0 -0.4,-0.2 -0.4,-0.4c0,-4.6 0,-9.2 0,-13.8c0,-0.7 0.2,-0.9 0.9,-0.9c1.7,0 3.4,0.1 5,0c2,0.1 3.5,0.8 4.6,2.3zm-3.6,3.2c0.6,-0.7 0.4,-1.6 -0.4,-1.8c-0.8,-0.2 -1.5,-0.1 -2.3,-0.1c-0.2,0 -0.3,0.1 -0.4,0.3c-0.4,1.4 0.1,2.1 1.5,2.1c0.1,0 0.3,0 0.4,0c0.5,0 1,0.1 1.2,-0.5l0,0zm-1.4,6.2c0.4,0 0.8,0 1.2,0c0.8,0 1.2,-0.4 1.3,-1.2c0,-0.8 -0.4,-1.3 -1.2,-1.3c-0.8,0 -1.6,0 -2.4,0c-0.3,0 -0.5,0 -0.6,0.4c-0.4,1.5 0,2.1 1.7,2.1c0,0 0,0 0,0z" class="st1"></path> </g> <g id="svg_24"> <path id="svg_23" fill="#F9FCFC" d="m216.10001,208.79999c0.1,-0.1 0.3,-0.2 0.4,-0.4c0.2,-0.2 0.5,-0.4 0.4,-0.9c-1,0 -2,0 -3,0c0,0 0,0 0,0c0,-0.8 0,-1.6 0,-2.3c-0.1,-0.7 0.1,-1 0.9,-1c1.5,0.1 2.9,0 4.4,0c1.9,0 1.9,0 1.8,1.9c-0.1,2.6 -1,4.8 -3.5,6c-2.9,1.4 -5.8,1 -8.5,-0.7c-0.1,0 -0.1,-0.1 -0.2,-0.1c-0.3,-0.3 -0.7,-0.6 -1,-1l0,0c-0.4,-0.7 -0.8,-1.3 -1.2,-2c0,0 0,0 0,0c-0.8,-2.9 -0.6,-5.6 1.2,-8.1c0,0 0,0 0,0c0.7,-0.6 1.3,-1.2 2.1,-1.6c2.2,-1.2 4.5,-1.2 6.9,-0.6l0,0c0.4,0.2 0.8,0.4 1.2,0.6c0,0 0,0 0,0c0.3,0.2 0.5,0.4 0.8,0.6l0,0c1,1 1.8,2.2 2,3.7l-0.1,0c0,0 0,0 0,0c-1,0 -2,0 -3,0c-0.4,0 -0.7,-0.1 -1,-0.5c-1.4,-1.8 -4.1,-1.8 -5.6,0c0,0 0,0 0,0c-0.4,0.3 -0.5,0.8 -0.7,1.2c-0.8,2.4 0.4,5.1 2.3,5.4c0,0 0.1,0 0.1,0c1,0.3 1.9,0.3 2.8,-0.2c0,0 0,0 0,0c0.3,0.2 0.4,0.1 0.5,0z" class="st1"></path> </g> <g id="svg_26"> <path id="svg_25" fill="#F9FCFC" d="m167.80001,212.89999c-0.1,-0.1 -0.1,-0.1 -0.2,-0.2c0,-1.3 0,-2.5 0,-3.8c0,-2.2 0,-2.2 -2.2,-2.1c-0.3,0 -0.5,0 -0.8,0c-0.2,0 -0.3,0 -0.5,0c-0.8,-0.1 -1.2,0.1 -1.1,1.1c0.1,1.4 0,2.8 0,4.2c0,0.5 -0.1,0.8 -0.7,0.8c-0.9,-0.1 -1.7,0 -2.6,0c-0.5,0 -0.6,-0.2 -0.6,-0.7c0,-4.5 0,-9.1 0,-13.6c0,-0.6 0.2,-0.8 0.8,-0.8c1,0 2,0 3,0c0.1,0 0.1,0.1 0.2,0.1c0,1.5 0,3 0,4.6c0,0.6 0.2,0.8 0.8,0.8c1,0 1.9,0 2.9,0c0.7,0 0.9,-0.2 0.9,-0.9c-0.1,-1.5 0,-3 0,-4.5c1.1,0 2.3,0 3.4,-0.1c0.5,0 0.6,0.2 0.6,0.6c0,4.6 0,9.2 0,13.8c0,0.3 0,0.5 -0.3,0.6c-1.2,0.1 -2.4,0.1 -3.6,0.1z" class="st1"></path> </g> <g id="svg_28"> <path id="svg_27" fill="#F9FCFC" d="m197.40001,203.49999c0,-1.6 0,-3.2 0,-4.9c0,-0.6 0.1,-0.9 0.8,-0.8c1,0.1 2.3,-0.3 2.9,0.2c0.7,0.5 0.2,1.9 0.2,2.9c0,3.7 0,7.3 0,11c0,0.3 0.1,0.7 -0.2,1c-0.9,0.1 -1.5,-0.2 -2.1,-0.9c-0.3,-0.4 -0.8,-0.7 -1.2,-1.1c0,0 0,0 0,0c-0.6,-0.8 -1.4,-1.5 -2.2,-2.1l0,0c-0.5,-0.7 -1.1,-1.2 -1.8,-1.7c0,0 0,0 0,0c-0.4,-0.5 -0.8,-1 -1.5,-1.4c0,0.7 0,1.3 0,1.8c-0.1,1.8 0.1,3.6 -0.1,5.4c-1.3,-0.1 -2.6,0.2 -3.9,-0.2c0,-4.6 0,-9.2 0,-13.9c0,-0.3 -0.2,-0.8 0.2,-1c0.4,-0.2 1,-0.2 1.4,0.1c0.3,0.2 0.5,0.4 0.7,0.7c0.8,0.8 1.6,1.5 2.4,2.3c0,0 0,0 0,0c0.1,0.2 0.2,0.3 0.4,0.4c0,0 0,0 0,0c1.1,1.3 2.4,2.5 3.8,3.8c0.2,-0.7 0.2,-1.1 0.2,-1.6z" class="st1"></path> </g> <g id="svg_30"> <path id="svg_29" fill="#F9FCFC" d="m153.20001,205.39999c2.4,3.2 0.6,7.1 -3.6,7.7c-2.1,0.3 -4,0 -5.7,-1.1c-0.2,-0.2 -0.5,-0.4 -0.7,-0.6l0,0c0,0 0,0 0,0c-0.1,-0.2 -0.2,-0.4 -0.4,-0.5c0,0 0,0 0,0c-0.2,-0.6 -0.5,-1.2 -0.6,-1.9c0,-0.4 0,-0.6 0.5,-0.6c0.9,0 1.8,0 2.7,0c0.2,0 0.4,0 0.6,0.2c0.8,1.1 2.1,1.5 3.4,1.1c0.5,-0.2 1.2,-0.4 1.1,-1.1c0,-0.7 -0.6,-1 -1.2,-1.1c-0.6,-0.1 -1.3,-0.2 -1.9,-0.2c-1.2,-0.1 -2.4,-0.2 -3.3,-0.9c-2.7,-2 -2.3,-6.4 0.8,-7.8c2.7,-1.2 5.3,-1 7.7,0.9c0,0 0,0 0,0c0.6,0.7 1,1.6 1.1,2.5c0,0.3 0.1,0.7 -0.4,0.7c-0.9,0 -1.9,0 -2.8,0c-0.3,0 -0.4,-0.2 -0.5,-0.4c-0.6,-0.9 -1.4,-1.2 -2.5,-1c-0.8,0.2 -1.6,0.5 -1.5,1.5c0,0.9 0.8,1.1 1.5,1.2c1.7,0.3 3.5,0.3 5.1,1.2c0,0 0,0 0,0c0.2,-0.1 0.4,0.1 0.6,0.2z" class="st1"></path> </g> <g id="svg_32"> <path id="svg_31" fill="#F9FCFC" d="m67.40001,212.89999c-0.5,-0.1 -0.4,-0.5 -0.4,-0.8c0,-4.5 0,-9 0,-13.5c0,-0.6 0.2,-0.8 0.8,-0.8c1.9,0 3.9,0 5.8,0c2.5,0 4.3,1.3 5.1,3.5c0.9,2.5 0.1,5.2 -1.8,6.7c-0.1,0.1 -0.3,0.2 -0.4,0.3c-0.2,0.1 -0.3,0.1 -0.4,0.3c0,0 0,0 0,0c-0.2,0 -0.4,0.1 -0.6,0.2l0,0c-1.3,0.3 -2.7,0.2 -4,0.2c-0.5,0 -0.7,0.1 -0.7,0.6c0,1 0,2.1 0,3.1c0,0 0,0.1 0,0.1c-1.1,0 -2.2,0.1 -3.4,0.1zm6.9,-7.7l0,0c0.8,-0.7 1.1,-1.6 0.8,-2.6c-0.2,-0.7 -0.6,-1.3 -1.4,-1.3c-0.7,0 -1.5,0 -2.2,0c-0.2,0 -0.6,-0.1 -0.6,0.3c0.1,1.3 -0.2,2.6 0.2,3.9c0.1,0 0.1,0 0.2,0c1,-0.1 2,0.3 3,-0.3z" class="st1"></path> </g> <g id="svg_34"> <path id="svg_33" fill="#F9FCFC" d="m83.80001,197.89999c0.1,0 0.1,0 0.2,-0.1c1.2,0 2.3,0 3.5,0c0,0 0,0 0,0c0,3.1 0,6.2 0,9.3c0,0.6 -0.1,1.2 0.5,1.6c0,0 0,0 0,0c1,1 2.2,1.1 3.2,0.2c0,0 0,0 0,0c0.2,0 0.3,0 0.4,-0.2l0,0c0.5,-0.3 0.5,-0.9 0.5,-1.4c0,-2.9 0,-5.8 0,-8.8c0,-0.6 0.1,-0.8 0.7,-0.8c0.7,0 1.4,0 2.1,0c0.6,0 0.8,0.2 0.8,0.8c0,2.7 0,5.4 0,8.1c0,1.6 -0.2,3 -1.1,4.3c0,0 0,0 0,0c-0.1,0.1 -0.1,0.1 -0.2,0.2c0,0 0,0 0,0c-0.5,0.3 -0.9,0.8 -1.5,1c-2.7,1.2 -5.2,0.9 -7.6,-0.8c0,0 0,0 0,0c-1.2,-1.3 -1.6,-2.8 -1.6,-4.6c0.1,-2.8 0.1,-5.8 0.1,-8.8z" class="st1"></path> </g> <g id="svg_36"> <path id="svg_35" fill="#F9FCFC" d="m183.80001,209.39999c0.2,1.2 0.2,2.3 0,3.5c-2.2,0 -4.4,0 -6.7,0c-0.7,0 -0.9,-0.2 -0.9,-0.9c0,-0.7 0,-1.5 0,-2.2c0,-0.2 0.2,-0.3 0.4,-0.4c0.2,0 0.3,0 0.5,0c0.9,0.1 1.2,-0.1 1.1,-1.1c-0.1,-1.8 0,-3.6 0,-5.4c0,-1.7 0,-1.7 -1.8,-1.8c0,-0.9 0,-1.7 0,-2.6c0,-0.5 0.1,-0.7 0.7,-0.7c2.2,0 4.5,0 6.7,0c0,0.8 0,1.6 0,2.3c0.1,0.7 -0.1,1.1 -0.9,1c-0.7,-0.1 -0.9,0.2 -0.8,0.9c0,1.9 0,3.7 0,5.6c-0.1,1.8 -0.1,1.8 1.7,1.8z" class="st1"></path> </g> <g id="svg_38"> <path id="svg_37" fill="#F9FCFC" d="m131.20001,212.89999c-0.4,-1.2 -0.4,-2.3 0,-3.5c0.2,0 0.3,0 0.5,0c0.9,0.2 1.2,-0.2 1.2,-1.1c-0.1,-2.1 -0.1,-4.1 0,-6.2c0,-0.7 -0.2,-1 -0.9,-0.9c-0.7,0.1 -0.9,-0.2 -0.9,-0.8c0.1,-0.8 0,-1.6 0,-2.4c0,0 0,0 0,0c1.6,-0.2 3.2,-0.1 4.8,-0.1c2.5,0 2.5,0 2.5,2.5c0,0.7 -0.1,1 -0.8,0.8c-0.8,-0.1 -1,0.2 -0.9,1c0.1,1.9 0,3.8 0,5.6c0,1.7 0,1.7 1.7,1.6c0.3,1.2 0.3,2.4 0,3.5c-2.4,0 -4.8,0 -7.2,0z" class="st1"></path> </g> <g id="svg_40"> <path id="svg_39" fill="#F9FCFC" d="m118.20001,197.89999c1.3,0 2.6,0 3.8,0c0,3.5 0,7 0,10.6c0,0.7 0.2,0.9 0.9,0.9c1.5,0 3,0 4.5,0c0,0.1 0,0.1 0,0.2c0,1 0,2.1 0,3.1c-0.1,0.1 -0.2,0.1 -0.2,0.2c-2.7,0 -5.4,-0.1 -8.2,0c-0.8,0 -1,-0.2 -1,-1c0.2,-4.7 0.2,-9.3 0.2,-14z" class="st1"></path> </g> <g id="svg_42"> <path id="svg_41" fill="#F9FCFC" d="m223.80001,61.79999c0,0 0,0.1 0,0c0,0.1 0,0 0,0z" class="st1"></path> </g> <g id="svg_44"> <path id="svg_43" fill="#FFFFFF" d="m145.60001,282.49999c-74.9,0 -135.9,-61 -135.9,-135.9c0,-74.9 61,-135.9 135.9,-135.9c74.9,0 135.9,61 135.9,135.9c0,74.9 -61,135.9 -135.9,135.9zm0,-268.2c-73,0 -132.3,59.4 -132.3,132.3c0,73 59.4,132.3 132.3,132.3c73,0 132.3,-59.4 132.3,-132.3c0,-73 -59.3,-132.3 -132.3,-132.3z" class="st2"></path> </g> </g> </g> </svg> 